<svg xmlns="http://www.w3.org/2000/svg" xmlns:xlink="http://www.w3.org/1999/xlink" width="395.698" height="304" viewBox="0 0 395.698 304">
  <defs>
    <style>
      .cls-1 {
        fill: none;
        stroke: #3687d0;
        stroke-linecap: round;
        stroke-width: 8px;
      }

      .cls-2 {
        filter: url(#Path_2);
      }

      .cls-3 {
        filter: url(#Path_1);
      }
    </style>
    <filter id="Path_1" x="0" y="0" width="395.698" height="296.212" filterUnits="userSpaceOnUse">
      <feOffset dx="4" input="SourceAlpha"/>
      <feGaussianBlur stdDeviation="6" result="blur"/>
      <feFlood flood-opacity="0.161"/>
      <feComposite operator="in" in2="blur"/>
      <feComposite in="SourceGraphic"/>
    </filter>
    <filter id="Path_2" x="345.883" y="246.156" width="41.162" height="57.844" filterUnits="userSpaceOnUse">
      <feOffset dx="3" dy="3" input="SourceAlpha"/>
      <feGaussianBlur stdDeviation="3" result="blur-2"/>
      <feFlood flood-opacity="0.478"/>
      <feComposite operator="in" in2="blur-2"/>
      <feComposite in="SourceGraphic"/>
    </filter>
  </defs>
  <g id="Group_193" data-name="Group 193" transform="translate(-297.798 -3854.741)">
    <g id="Group_192" data-name="Group 192" transform="translate(315.843 3876.741)">
      <g class="cls-3" transform="matrix(1, 0, 0, 1, -18.04, -22)">
        <path id="Path_1-2" data-name="Path 1" class="cls-1" d="M57.846,47.76s43.285-97.766-2.625-130.369-135.759-32.635-181.012-.042-73.569,142.9-27.66,175.5c19.924,14.15,77.412,34.984,119.33,22.872C19.922,100.109,57.846,47.76,57.846,47.76s12.142,67.46,39.718,89.947c24.542,20.013,67.7-6.408,77.164-12.643.866-.569-35.477-9.341-35.477-9.341" transform="translate(194.89 129.08)"/>
      </g>
      <g class="cls-2" transform="matrix(1, 0, 0, 1, -18.04, -22)">
        <path id="Path_2-2" data-name="Path 2" class="cls-1" d="M480.608,441.2,465.447,473.04" transform="translate(-109.56 -185.04)"/>
      </g>
    </g>
  </g>
</svg>
