<svg xmlns="http://www.w3.org/2000/svg" width="50.996" height="48.709" viewBox="0 0 50.996 48.709">
  <g id="Group_58" data-name="Group 58" transform="translate(-317.202 -46)">
    <g id="Group_58-2" data-name="Group 58" transform="translate(317.2 46.001)">
      <path id="Path_995" data-name="Path 995" d="M102,112.993a25.966,25.966,0,0,0,1.174,7.688,1.642,1.642,0,0,0,.352-.059l-.235.059c-1.937.469-2,.587-2,1h0a.533.533,0,0,0,.176.411c.293.235.293.293,6.69.117.822,0,1.761-.059,2.641-.059-.528.117-1.056.293-1.526.411-5.223,1.291-5.223,1.35-5.223,1.937a.533.533,0,0,0,.176.411c.293.293.528.293,6.631.117.646,0,1.291-.059,1.937-.059-.469.117-1,.176-1.467.293-7.1,1.291-7.1,1.408-7.1,2a.533.533,0,0,0,.176.411c.293.293.646.352,8.568.117,1.35-.059,2.876-.059,4.284-.117-.763.117-1.526.293-2.23.411-7.336,1.232-7.336,1.35-7.336,1.937a.666.666,0,0,0,.176.469c.587.587,3.991.587,19.19.117,4.519-.117,9.742-.293,13.38-.352-3.638.293-8.8.528-13.028.7-16.49.763-16.49.939-16.49,1.819a.666.666,0,0,0,.176.469c.528.469,2.993.528,15.786.117,3.638-.117,7.746-.235,10.857-.293-2.817.235-6.4.469-9.389.7-13.38.88-13.38,1.056-13.38,1.819a.666.666,0,0,0,.176.469c.235.235.939.352,3.11.352,1.819,0,4.636-.059,9.1-.235,4.4-.176,9.859-.352,10.857-.117a.834.834,0,0,0,.352.117.542.542,0,0,0,.528-.587.457.457,0,0,0-.176-.411c-.469-.411-2.171-.469-11.619-.117-1.115.059-2.289.059-3.462.117,1.526-.117,3.052-.235,4.519-.293,14.436-.939,14.906-1.174,14.906-2.054a.666.666,0,0,0-.176-.469c-.528-.528-3.286-.528-16.314-.117-2,.059-4.108.117-6.1.176,2.171-.117,4.519-.235,6.69-.352,17.84-.822,18.544-1.115,18.544-2.054a.666.666,0,0,0-.176-.469c-.587-.528-3.756-.587-18.779-.117-5.458.176-11.854.352-15.551.352,1.174-.235,2.523-.469,3.7-.646,7.159-1.232,7.159-1.291,7.159-1.937a.533.533,0,0,0-.176-.411c-.293-.293-.763-.411-9.272-.176-1.232.059-2.582.059-3.814.117.822-.176,1.7-.293,2.465-.469,6.514-1.232,6.514-1.232,6.514-1.878a.533.533,0,0,0-.176-.411c-.293-.293-.587-.352-7.042-.117-.88,0-1.761.059-2.641.059.469-.117.939-.235,1.35-.352,5.4-1.35,5.4-1.408,5.4-1.937a.533.533,0,0,0-.176-.411c-.235-.235-.293-.293-6.631-.117-.646,0-1.35.059-2.054.059.528-.117,2.406-.469,3.052-.646.822-.235,2.113-.646,2.876-.88.528-.117.822-.176.763-.293a15.423,15.423,0,0,1-1.35-6.4,15.669,15.669,0,1,1,29.342,7.688h.88c.528.059-.176.059,2.113,0h2.406l-.88.176c-6.983,1.291-6.983,1.35-6.983,2a.533.533,0,0,0,.176.411c.293.235.293.293,6.338.117a10.847,10.847,0,0,0,1.35-.059c-1.115.176-2.289.293-3.345.469-8.333,1.115-8.333,1.174-8.333,1.819a.533.533,0,0,0,.176.411c.293.293.587.352,7.57.117h.7c-1.115.117-2.171.235-3.228.352-10.5,1.115-10.5,1.174-10.5,1.937a.457.457,0,0,0,.176.411c.235.235.646.293,2.523.293,1.408,0,3.58-.059,7.1-.176,3.286-.117,7.394-.235,8.157-.117a.629.629,0,0,0,.352.117.588.588,0,0,0,.587-.587.533.533,0,0,0-.176-.411c-.352-.352-1.174-.411-8.92-.117-.763,0-1.643.059-2.523.059l3.345-.352c10.857-1.115,10.857-1.232,10.857-2a.533.533,0,0,0-.176-.411c-.293-.293-.7-.352-8.274-.176H141.5l1.408-.176c9.389-1.232,9.389-1.35,9.389-2.054a.533.533,0,0,0-.176-.411c-.293-.293-.646-.352-7.394-.176a8.667,8.667,0,0,0-1.232.059c.646-.117,1.291-.235,1.878-.352a48.835,48.835,0,0,0,5.575-1.232h.059a25.114,25.114,0,1,0-49-7.57" transform="translate(-101.3 -87.7)" fill="#181818"/>
    </g>
  </g>
</svg>
