<svg id="Group_176" data-name="Group 176" xmlns="http://www.w3.org/2000/svg" xmlns:xlink="http://www.w3.org/1999/xlink" width="48" height="48" viewBox="0 0 48 48">
  <defs>
    <style>
      .cls-1 {
        fill: url(#pattern);
      }

      .cls-2 {
        fill: url(#linear-gradient);
      }
    </style>
    <pattern id="pattern" preserveAspectRatio="xMidYMid slice" width="100%" height="100%" viewBox="0 0 1000 600">
      <image width="2200" height="1080" xlink:href=""/>
    </pattern>
    <linearGradient id="linear-gradient" x1="0.5" x2="0.5" y2="1" gradientUnits="objectBoundingBox">
      <stop offset="0" stop-color="#3687d0" stop-opacity="0.2"/>
      <stop offset="1" stop-color="#3687d0" stop-opacity="0.8"/>
    </linearGradient>
  </defs>
  <g id="Group_58" data-name="Group 58" transform="translate(0 0)">
    <path id="mikail-mcverry-1455546-unsplash" class="cls-1" d="M101.963,112.625a26.7,26.7,0,0,0,1.1,7.576,1.481,1.481,0,0,0,.331-.058l-.221.058c-1.823.463-1.878.578-1.878.983h0a.537.537,0,0,0,.166.4c.276.231.276.289,6.3.116.773,0,1.657-.058,2.486-.058-.5.116-.994.289-1.436.4-4.916,1.272-4.916,1.33-4.916,1.908a.537.537,0,0,0,.166.4c.276.289.5.289,6.242.116.608,0,1.215-.058,1.823-.058-.442.116-.939.174-1.381.289-6.684,1.272-6.684,1.388-6.684,1.966a.537.537,0,0,0,.166.4c.276.289.608.347,8.064.116,1.27-.058,2.707-.058,4.032-.116-.718.116-1.436.289-2.1.4-6.9,1.214-6.9,1.33-6.9,1.908a.675.675,0,0,0,.166.463c.552.578,3.756.578,18.062.116,4.253-.116,9.169-.289,12.594-.347-3.425.289-8.285.52-12.262.694-15.521.752-15.521.925-15.521,1.793a.675.675,0,0,0,.166.463c.5.463,2.817.52,14.858.116,3.425-.116,7.291-.231,10.219-.289-2.651.231-6.021.463-8.838.694-12.594.867-12.594,1.041-12.594,1.793a.674.674,0,0,0,.166.463c.221.231.884.347,2.928.347,1.712,0,4.364-.058,8.562-.231,4.143-.173,9.28-.347,10.219-.116a.761.761,0,0,0,.331.116.525.525,0,0,0,.5-.578.459.459,0,0,0-.166-.4c-.442-.4-2.044-.463-10.937-.116-1.049.058-2.154.058-3.259.116,1.436-.116,2.872-.231,4.253-.289,13.588-.925,14.03-1.157,14.03-2.024a.674.674,0,0,0-.166-.463c-.5-.52-3.093-.52-15.356-.116-1.878.058-3.866.116-5.745.173,2.044-.116,4.253-.231,6.3-.347,16.792-.81,17.455-1.1,17.455-2.024a.675.675,0,0,0-.166-.463c-.552-.52-3.535-.578-17.675-.116-5.137.174-11.158.347-14.637.347,1.1-.231,2.375-.463,3.48-.636,6.739-1.214,6.739-1.272,6.739-1.908a.537.537,0,0,0-.166-.4c-.276-.289-.718-.4-8.727-.174-1.16.058-2.43.058-3.59.116.773-.173,1.6-.289,2.32-.463,6.131-1.214,6.131-1.214,6.131-1.851a.537.537,0,0,0-.166-.4c-.276-.289-.552-.347-6.628-.116-.829,0-1.657.058-2.486.058.442-.116.884-.231,1.27-.347,5.082-1.33,5.082-1.388,5.082-1.908a.537.537,0,0,0-.166-.4c-.221-.231-.276-.289-6.242-.116-.608,0-1.27.058-1.933.058.5-.116,2.265-.463,2.872-.636.773-.231,1.988-.636,2.707-.867.5-.116.773-.174.718-.289a15.808,15.808,0,0,1-1.27-6.3c0-8.5,6.628-15.441,14.748-15.441s14.748,6.94,14.748,15.441a15.97,15.97,0,0,1-1.878,7.576h.829c.5.058-.166.058,1.988,0h2.265l-.829.174c-6.573,1.272-6.573,1.33-6.573,1.966a.537.537,0,0,0,.166.4c.276.231.276.289,5.965.116a9.75,9.75,0,0,0,1.27-.058c-1.049.173-2.154.289-3.148.463-7.844,1.1-7.844,1.157-7.844,1.793a.537.537,0,0,0,.166.4c.276.289.552.347,7.125.116h.663c-1.049.116-2.044.231-3.038.347-9.887,1.1-9.887,1.157-9.887,1.908a.459.459,0,0,0,.166.4c.221.231.608.289,2.375.289,1.326,0,3.369-.058,6.683-.173,3.093-.116,6.96-.231,7.678-.116a.575.575,0,0,0,.331.116.566.566,0,0,0,.552-.578.537.537,0,0,0-.166-.4c-.331-.347-1.1-.4-8.4-.116-.718,0-1.547.058-2.375.058l3.148-.347c10.219-1.1,10.219-1.214,10.219-1.966a.537.537,0,0,0-.166-.4c-.276-.289-.663-.347-7.788-.174h-.608l1.326-.173c8.838-1.214,8.838-1.33,8.838-2.024a.537.537,0,0,0-.166-.4c-.276-.289-.608-.347-6.96-.174a7.8,7.8,0,0,0-1.16.058c.608-.116,1.215-.231,1.768-.347a44.212,44.212,0,0,0,5.247-1.214h.055a26.1,26.1,0,0,0,1.1-7.576c0-13.706-10.66-24.81-23.7-24.81-12.925.116-23.53,11.219-23.53,24.925" transform="translate(-101.3 -87.7)"/>
    <path id="mikail-mcverry-1455546-unsplash-2" data-name="mikail-mcverry-1455546-unsplash" class="cls-2" d="M101.963,112.625a26.7,26.7,0,0,0,1.1,7.576,1.481,1.481,0,0,0,.331-.058l-.221.058c-1.823.463-1.878.578-1.878.983h0a.537.537,0,0,0,.166.4c.276.231.276.289,6.3.116.773,0,1.657-.058,2.486-.058-.5.116-.994.289-1.436.4-4.916,1.272-4.916,1.33-4.916,1.908a.537.537,0,0,0,.166.4c.276.289.5.289,6.242.116.608,0,1.215-.058,1.823-.058-.442.116-.939.174-1.381.289-6.684,1.272-6.684,1.388-6.684,1.966a.537.537,0,0,0,.166.4c.276.289.608.347,8.064.116,1.27-.058,2.707-.058,4.032-.116-.718.116-1.436.289-2.1.4-6.9,1.214-6.9,1.33-6.9,1.908a.675.675,0,0,0,.166.463c.552.578,3.756.578,18.062.116,4.253-.116,9.169-.289,12.594-.347-3.425.289-8.285.52-12.262.694-15.521.752-15.521.925-15.521,1.793a.675.675,0,0,0,.166.463c.5.463,2.817.52,14.858.116,3.425-.116,7.291-.231,10.219-.289-2.651.231-6.021.463-8.838.694-12.594.867-12.594,1.041-12.594,1.793a.674.674,0,0,0,.166.463c.221.231.884.347,2.928.347,1.712,0,4.364-.058,8.562-.231,4.143-.173,9.28-.347,10.219-.116a.761.761,0,0,0,.331.116.525.525,0,0,0,.5-.578.459.459,0,0,0-.166-.4c-.442-.4-2.044-.463-10.937-.116-1.049.058-2.154.058-3.259.116,1.436-.116,2.872-.231,4.253-.289,13.588-.925,14.03-1.157,14.03-2.024a.674.674,0,0,0-.166-.463c-.5-.52-3.093-.52-15.356-.116-1.878.058-3.866.116-5.745.173,2.044-.116,4.253-.231,6.3-.347,16.792-.81,17.455-1.1,17.455-2.024a.675.675,0,0,0-.166-.463c-.552-.52-3.535-.578-17.675-.116-5.137.174-11.158.347-14.637.347,1.1-.231,2.375-.463,3.48-.636,6.739-1.214,6.739-1.272,6.739-1.908a.537.537,0,0,0-.166-.4c-.276-.289-.718-.4-8.727-.174-1.16.058-2.43.058-3.59.116.773-.173,1.6-.289,2.32-.463,6.131-1.214,6.131-1.214,6.131-1.851a.537.537,0,0,0-.166-.4c-.276-.289-.552-.347-6.628-.116-.829,0-1.657.058-2.486.058.442-.116.884-.231,1.27-.347,5.082-1.33,5.082-1.388,5.082-1.908a.537.537,0,0,0-.166-.4c-.221-.231-.276-.289-6.242-.116-.608,0-1.27.058-1.933.058.5-.116,2.265-.463,2.872-.636.773-.231,1.988-.636,2.707-.867.5-.116.773-.174.718-.289a15.808,15.808,0,0,1-1.27-6.3c0-8.5,6.628-15.441,14.748-15.441s14.748,6.94,14.748,15.441a15.97,15.97,0,0,1-1.878,7.576h.829c.5.058-.166.058,1.988,0h2.265l-.829.174c-6.573,1.272-6.573,1.33-6.573,1.966a.537.537,0,0,0,.166.4c.276.231.276.289,5.965.116a9.75,9.75,0,0,0,1.27-.058c-1.049.173-2.154.289-3.148.463-7.844,1.1-7.844,1.157-7.844,1.793a.537.537,0,0,0,.166.4c.276.289.552.347,7.125.116h.663c-1.049.116-2.044.231-3.038.347-9.887,1.1-9.887,1.157-9.887,1.908a.459.459,0,0,0,.166.4c.221.231.608.289,2.375.289,1.326,0,3.369-.058,6.683-.173,3.093-.116,6.96-.231,7.678-.116a.575.575,0,0,0,.331.116.566.566,0,0,0,.552-.578.537.537,0,0,0-.166-.4c-.331-.347-1.1-.4-8.4-.116-.718,0-1.547.058-2.375.058l3.148-.347c10.219-1.1,10.219-1.214,10.219-1.966a.537.537,0,0,0-.166-.4c-.276-.289-.663-.347-7.788-.174h-.608l1.326-.173c8.838-1.214,8.838-1.33,8.838-2.024a.537.537,0,0,0-.166-.4c-.276-.289-.608-.347-6.96-.174a7.8,7.8,0,0,0-1.16.058c.608-.116,1.215-.231,1.768-.347a44.212,44.212,0,0,0,5.247-1.214h.055a26.1,26.1,0,0,0,1.1-7.576c0-13.706-10.66-24.81-23.7-24.81-12.925.116-23.53,11.219-23.53,24.925" transform="translate(-101.3 -87.7)"/>
  </g>
</svg>
