<svg xmlns="http://www.w3.org/2000/svg" width="180" height="180" viewBox="0 0 180 180">
  <g id="team" transform="translate(-0.008 -0.001)">
    <path id="Path_1145" data-name="Path 1145" d="M163.682,147.088a14.436,14.436,0,0,0,4.712-10.634v-5.806a14.517,14.517,0,0,0-28.74-2.9h-9.536a8.659,8.659,0,0,0-16.352,0H104.23a14.562,14.562,0,0,0-11.319-11.319v-6.512a11.6,11.6,0,0,0,8.71-11.2h2.9a2.9,2.9,0,0,0,2.9-2.9V87.1h5.806V81.293h-5.806v-.031A19.956,19.956,0,0,1,114.649,66.3,37.722,37.722,0,0,0,88.451.037c-19.6.79-35.83,17.4-36.18,37.021A37.641,37.641,0,0,0,65.12,66.084a21.174,21.174,0,0,1,7.438,15.209H66.782V87.1h5.806v8.709a2.9,2.9,0,0,0,2.9,2.9h2.9a11.6,11.6,0,0,0,8.71,11.2v6.512a14.563,14.563,0,0,0-11.321,11.319H66.247a8.659,8.659,0,0,0-16.352,0H40.359a14.516,14.516,0,0,0-28.739,2.9v5.806a14.435,14.435,0,0,0,4.711,10.635,26.157,26.157,0,0,0-16.324,24.2V177.1a2.9,2.9,0,0,0,2.9,2.9H49.362a2.9,2.9,0,0,0,2.9-2.9v-5.806a26.158,26.158,0,0,0-16.325-24.2,14.436,14.436,0,0,0,4.712-10.635v-2.9H49.9a8.66,8.66,0,0,0,16.352,0h9.244v2.9A14.435,14.435,0,0,0,80.2,147.088a26.157,26.157,0,0,0-16.324,24.2V177.1a2.9,2.9,0,0,0,2.9,2.9h46.452a2.9,2.9,0,0,0,2.9-2.9v-5.806a26.158,26.158,0,0,0-16.325-24.2,14.436,14.436,0,0,0,4.712-10.635v-2.9h9.243a8.659,8.659,0,0,0,16.352,0h9.244v2.9a14.435,14.435,0,0,0,4.711,10.635,26.157,26.157,0,0,0-16.324,24.2V177.1a2.9,2.9,0,0,0,2.9,2.9H177.1a2.9,2.9,0,0,0,2.9-2.9v-5.806a26.158,26.158,0,0,0-16.325-24.2Zm-117.223,24.2v2.9H40.653v-5.806H34.846v5.806H17.427v-5.806H11.62v5.806H5.814v-2.9a20.323,20.323,0,0,1,40.645,0ZM17.427,136.453v-5.806a8.71,8.71,0,0,1,17.419,0v5.806a8.71,8.71,0,0,1-17.419,0Zm40.645-2.9a2.9,2.9,0,1,1,2.9-2.9A2.9,2.9,0,0,1,58.072,133.55ZM68.946,61.717A31.838,31.838,0,0,1,58.078,37.159,32.336,32.336,0,0,1,88.683,5.837a31.908,31.908,0,0,1,22.174,56.057,25.765,25.765,0,0,0-9.237,19.368v.031H78.365a26.964,26.964,0,0,0-9.418-19.576ZM101.62,87.1v5.806H78.394V87.1ZM84.2,98.712H95.814a5.806,5.806,0,0,1-11.613,0Zm26.129,72.579v2.9h-5.806v-5.806H98.717v5.806H81.3v-5.806H75.491v5.806H69.685v-2.9a20.323,20.323,0,0,1,40.645,0ZM81.3,136.453v-5.806a8.71,8.71,0,0,1,17.419,0v5.806a8.71,8.71,0,0,1-17.419,0Zm40.645-2.9a2.9,2.9,0,1,1,2.9-2.9A2.9,2.9,0,0,1,121.943,133.55Zm23.226,2.9v-5.806a8.71,8.71,0,0,1,17.419,0v5.806a8.71,8.71,0,0,1-17.419,0ZM174.2,174.194h-5.806v-5.806h-5.806v5.806H145.169v-5.806h-5.806v5.806h-5.806v-2.9a20.323,20.323,0,0,1,40.645,0Zm0,0" transform="translate(0 0)"/>
    <path id="Path_1146" data-name="Path 1146" d="M232.008,192.012h11.661v5.83H232.008Zm0,0" transform="translate(-147.831 -122.341)"/>
  </g>
</svg>
