<svg xmlns="http://www.w3.org/2000/svg" width="40.812" height="40.812" viewBox="0 0 40.812 40.812">
  <path id="Path_1175" data-name="Path 1175" d="M209.5,82.7v6.125h5.83V82.7a14.453,14.453,0,0,0,5.11-2.134l4.489,4.489,4.121-4.122-4.488-4.489a14.5,14.5,0,0,0,2.134-5.11h6.125V65.5H226.7a14.5,14.5,0,0,0-2.134-5.11L229.05,55.9l-4.121-4.122-4.489,4.489a14.453,14.453,0,0,0-5.11-2.134V48.012H209.5v6.125a14.459,14.459,0,0,0-5.111,2.134L199.9,51.781,195.777,55.9l4.489,4.489a14.471,14.471,0,0,0-2.135,5.11h-6.124v5.83h6.124a14.47,14.47,0,0,0,2.135,5.11l-4.489,4.489,4.121,4.122,4.489-4.489A14.459,14.459,0,0,0,209.5,82.7Zm2.915-23.027a8.745,8.745,0,1,1-8.745,8.745,8.757,8.757,0,0,1,8.745-8.745Zm0,0" transform="translate(-192.008 -48.012)" fill="#c5cf33"/>
</svg>
